<!--
NixOS Logo © 2016 by Tim Cuthbertson is licensed under CC BY 4.0. To view a copy of this license, visit https://creativecommons.org/licenses/by/4.0/
-->

<svg xmlns="http://www.w3.org/2000/svg" xmlns:xlink="http://www.w3.org/1999/xlink" width="535" height="535" viewBox="0 0 501.563 501.563">
    <defs>
        <linearGradient id="a">
            <stop offset="0" style="stop-color:#fff;stop-opacity:0"/>
            <stop offset=".232" style="stop-color:#fff;stop-opacity:1"/>
            <stop offset="1" style="stop-color:#fff;stop-opacity:1"/>
        </linearGradient>
        <linearGradient xlink:href="#a" id="c" x1="-584.199" x2="-414.387" y1="782.336" y2="880.377" gradientTransform="translate(864.696 -1491.34)" gradientUnits="userSpaceOnUse"/>
        <linearGradient xlink:href="#a" id="b" x1="200.597" x2="389.576" y1="351.411" y2="460.518" gradientTransform="translate(210.82 -765.276)" gradientUnits="userSpaceOnUse"/>
    </defs>
    <g style="display:inline;opacity:1">
        <g style="stroke-width:11.0512" transform="translate(-156.433 966.307)scale(.99968)">
            <g style="stroke-width:11.0512" transform="rotate(-60 226.358 -449.372)">
                <path id="d" d="m449.719-420.513 122.197 211.675-56.157.527-32.624-56.87-32.857 56.566-27.902-.011-14.29-24.69 46.81-80.49-33.23-57.826z" style="opacity:1;fill:url(#b);fill-opacity:1;fill-rule:evenodd;stroke:none;stroke-width:33.1535;stroke-linecap:butt;stroke-linejoin:round;stroke-miterlimit:4;stroke-dasharray:none;stroke-opacity:1"/>
            </g>
            <path id="e" d="m309.549-710.388 122.197 211.675-56.157.527-32.624-56.87-32.856 56.566-27.903-.011-14.29-24.69 46.81-80.49-33.23-57.826z" style="color:#000;clip-rule:nonzero;display:inline;overflow:visible;visibility:visible;opacity:1;isolation:auto;mix-blend-mode:normal;color-interpolation:sRGB;color-interpolation-filters:linearRGB;solid-color:#000;solid-opacity:1;fill:url(#c);fill-opacity:1;fill-rule:evenodd;stroke:none;stroke-width:33.1535;stroke-linecap:butt;stroke-linejoin:round;stroke-miterlimit:4;stroke-dasharray:none;stroke-dashoffset:0;stroke-opacity:1;color-rendering:auto;image-rendering:auto;shape-rendering:auto;text-rendering:auto"/>
            <use xlink:href="#d" width="100%" height="100%" style="stroke-width:11.0512" transform="rotate(60 728.236 -692.24)"/>
            <use xlink:href="#d" width="100%" height="100%" style="stroke-width:11.0512" transform="rotate(180 477.504 -570.819)"/>
            <use xlink:href="#e" width="100%" height="100%" style="display:inline;stroke-width:11.0512" transform="rotate(120 407.34 -716.084)"/>
            <use xlink:href="#e" width="100%" height="100%" style="display:inline;stroke-width:11.0512" transform="rotate(-120 407.288 -715.87)"/>
        </g>
    </g>
</svg>
